<?xml version="1.0" encoding="utf-8"?>
<!-- Generator: Adobe Illustrator 24.1.1, SVG Export Plug-In . SVG Version: 6.00 Build 0)  -->
<svg version="1.1" id="Layer_1" xmlns="http://www.w3.org/2000/svg" xmlns:xlink="http://www.w3.org/1999/xlink" x="0px" y="0px"
	 viewBox="0 0 1440 138" style="enable-background:new 0 0 1440 138;" xml:space="preserve">
<style type="text/css">
	.st0{fill:#FFBF00;}
	.st1{fill:#192480;}
	.st2{fill:#0688FA;}
</style>
<path class="st0" d="M893,138c0,64.6-51.9,117-116,117s-116-52.4-116-117c0-64.6,51.9-117,116-117S893,73.4,893,138z"/>
<path class="st1" d="M-215,145C355.4,118.7,375.6,19.4,548.1,19.4s187.3,85.3,326.4,85.3C1013.6,104.7,998.5,0,1178,0
	c146.1,0,278.6,125.6,370.7,125.6c92.1,0,8.9,6.2,77.3,17.1C1346.2,142.7-215,145-215,145z"/>
<path class="st2" d="M1638,156c-60.3-32.8-116.7-15.3-233.2-27c-116.5-11.7-165.5-60-328.7-60C913,69,869.1,123.2,657,123.2
	S284.8,69,161.5,69C38.1,69-3.4,103.4-88.8,123.2C-174.2,143-265.4,111.6-326,156C-226.5,156,1638,156,1638,156z"/>
</svg>
