<svg id="Layer_1" data-name="Layer 1" xmlns="http://www.w3.org/2000/svg" viewBox="0 0 1964 255"><defs><style>.cls-1{fill:#ffbf00;}.cls-2{fill:#192480;}.cls-3{fill:#0688fa;}</style></defs><path class="cls-1" d="M893,138c0,64.62-51.93,117-116,117S661,202.62,661,138,712.94,21,777,21,893,73.38,893,138Z" transform="translate(326)"/><path class="cls-2" d="M-215,145C355.41,118.66,375.61,19.39,548.13,19.39S735.42,104.7,874.52,104.7,998.47,0,1178,0c146.1,0,278.6,125.64,370.69,125.64s8.93,6.21,77.32,17.06C1346.24,142.7-215,145-215,145Z" transform="translate(326)"/><path class="cls-3" d="M1638,156c-60.31-32.79-116.67-15.32-233.19-27.05S1239.31,69,1076.14,69,869.09,123.21,657,123.21,284.84,69,161.48,69-3.36,103.44-88.79,123.21-265.39,111.61-326,156Z" transform="translate(326)"/></svg>